Coordinates
version=1
nRows=14
nColumns=40
inDegrees=yes

Units are S.I. units (second, meters, Newtons, ...)
Angles are in degrees.

endheader
time	pelvis_tilt	pelvis_list	pelvis_rotation	pelvis_tx	pelvis_ty	pelvis_tz	hip_flexion_r	hip_adduction_r	hip_rotation_r	knee_angle_r	knee_angle_r_beta	ankle_angle_r	subtalar_angle_r	mtp_angle_r	hip_flexion_l	hip_adduction_l	hip_rotation_l	knee_angle_l	knee_angle_l_beta	ankle_angle_l	subtalar_angle_l	mtp_angle_l	lumbar_extension	lumbar_bending	lumbar_rotation	arm_flex_r	arm_add_r	arm_rot_r	elbow_flex_r	pro_sup_r	wrist_flex_r	wrist_dev_r	arm_flex_l	arm_add_l	arm_rot_l	elbow_flex_l	pro_sup_l	wrist_flex_l	wrist_dev_l
     24.35000000	     -3.60837789	     -4.54277509	      1.74587762	      0.93701479	      0.93459335	      0.51308883	      8.38227270	      3.97823911	    -18.59730811	     13.34086369	     13.34086369	     10.22252436	      0.26621979	     -2.59597639	     32.56594105	    -10.68367030	      0.01409334	     46.62222948	     46.62222948	     10.29429912	    -18.29832965	     14.06423723	     -9.01197355	      5.26697090	      3.51084219	     24.51148807	    -15.38700739	     -7.27651983	     59.61128176	     45.37196417	      0.00000000	      0.00000000	      2.27890770	     -6.79312374	     -0.99042399	     22.57258217	     45.96227999	      0.00000000	      0.00000000
     24.36200000	     -3.79521007	     -4.45398416	      1.93578744	      0.93519316	      0.93446754	      0.51322140	      7.88786220	      3.99626704	    -18.68747174	     12.74119988	     12.74119988	     10.36670321	      0.46792720	     -2.69150597	     32.83745972	    -10.15529940	     -0.04378406	     42.91297438	     42.91297438	     10.30496129	    -17.69298744	     14.11682086	     -8.92458915	      5.15784774	      3.81234332	     26.26475488	    -15.77093488	     -7.50433502	     60.76241593	     45.35073390	      0.00000000	      0.00000000	      1.24700797	     -6.73543055	     -0.86903641	     22.36690995	     45.91421021	      0.00000000	      0.00000000
     24.37400000	     -3.91985786	     -4.49192114	      2.15316922	      0.93350060	      0.93429056	      0.51325222	      7.20513938	      4.17266727	    -18.99381599	     11.90985567	     11.90985567	     10.41441919	      0.97356949	     -2.88564771	     32.95470699	     -9.72194928	      0.04847511	     39.15261868	     39.15261868	     10.22138245	    -16.79628742	     13.75336730	     -8.95602541	      5.22402775	      3.82577312	     28.04525823	    -15.96259628	     -7.75311501	     62.28341623	     45.31809041	      0.00000000	      0.00000000	      0.04440476	     -6.70817711	     -0.68355344	     22.32369678	     45.84571803	      0.00000000	      0.00000000
     24.38600000	     -4.24323425	     -4.62921199	      2.37593068	      0.93167465	      0.93347959	      0.51310938	      6.93271937	      4.38908343	    -19.18063059	     11.44581119	     11.44581119	     10.61564843	      1.17211229	     -3.05896411	     33.37945512	     -9.36509518	      0.26858873	     35.70175850	     35.70175850	     10.37735554	    -15.40559796	     13.74206621	     -8.67279620	      5.43796717	      4.18186984	     29.79650404	    -16.50892484	     -8.00786365	     63.24139383	     45.30435768	      0.00000000	      0.00000000	     -0.93696507	     -6.56329247	     -0.61185183	     22.21014811	     45.80790806	      0.00000000	      0.00000000
     24.39800000	     -4.17870637	     -4.65535298	      2.58385938	      0.93041925	      0.93320611	      0.51292539	      5.76242586	      4.61934674	    -19.65853638	     10.08862866	     10.08862866	     10.13833096	      2.14693769	     -4.80129711	     32.94405013	     -8.99282314	      0.20862823	     31.70570304	     31.70570304	      8.65215033	    -14.22123293	      8.88722906	     -8.91651099	      5.49216198	      4.16582693	     31.26188833	    -16.54933280	     -8.36256483	     65.62334522	     45.28764930	      0.00000000	      0.00000000	     -2.94801656	     -7.28938785	      3.67626858	     24.23451352	     44.97336448	      0.00000000	      0.00000000
     24.41000000	     -4.49285188	     -4.87658814	      2.82263277	      0.92876591	      0.93214457	      0.51256759	      5.50686682	      4.91977639	    -19.82526288	      9.68889183	      9.68889183	     10.38866737	      2.23148215	     -4.90309013	     33.31756706	     -8.69706622	      0.58117245	     28.67930433	     28.67930433	      8.85937596	    -12.56944534	      9.20313855	     -8.60521840	      5.79771989	      4.46935881	     32.86598998	    -17.11441958	     -8.60969825	     66.34776563	     45.28074034	      0.00000000	      0.00000000	     -3.85037886	     -7.11480696	      3.72072152	     24.04534238	     44.95094345	      0.00000000	      0.00000000
     24.42200000	     -4.57220617	     -4.85350640	      3.01862130	      0.92748524	      0.93165263	      0.51216239	      4.68638250	      5.05804069	    -19.98100862	      8.74412661	      8.74412661	     10.50444391	      2.72382636	     -4.98251996	     33.17472024	     -8.29239357	      0.46980676	     25.64943651	     25.64943651	      9.07829751	    -10.57904182	      9.53233053	     -8.60648820	      5.74241821	      4.48542793	     34.35351619	    -17.16096089	     -8.76607649	     67.36812714	     45.26003219	      0.00000000	      0.00000000	     -4.82509445	     -7.06708893	      3.79524834	     23.93636112	     44.92203647	      0.00000000	      0.00000000
     24.43400000	     -4.50987332	     -5.03393675	      3.27748392	      0.92653178	      0.93108133	      0.51164989	      3.48670881	      5.48240964	    -20.43949859	      7.36559315	      7.36559315	     10.37002906	      3.79026988	     -5.48250760	     33.12467172	     -8.16348310	      0.18666479	     23.41254426	     23.41254426	      9.47014670	     -8.34102367	      9.74309033	     -8.71633375	      5.99601377	      4.30303192	     35.81954050	    -17.09729365	     -9.02317544	     68.79508382	     45.23393840	      0.00000000	      0.00000000	     -6.15465957	     -7.13046459	      4.04084533	     24.54356768	     44.86106326	      0.00000000	      0.00000000
     24.44600000	     -4.62308799	     -5.11133950	      3.47594397	      0.92539967	      0.93026929	      0.51103057	      2.82168377	      5.68417856	    -20.56481090	      6.66725040	      6.66725040	     10.51329909	      4.10173082	     -5.69433003	     33.14685439	     -7.85740482	      0.04477322	     21.38001461	     21.38001461	      9.48875933	     -7.07307794	     10.13078290	     -8.62658623	      6.07473037	      4.40331053	     37.15580068	    -17.29948211	     -9.20067632	     69.56774659	     45.22307942	      0.00000000	      0.00000000	     -7.05793102	     -7.09241284	      4.16838409	     24.52813002	     44.82751458	      0.00000000	      0.00000000
     24.45800000	     -4.68147605	     -5.29633018	      3.69676936	      0.92449075	      0.92938254	      0.51032569	      1.95908513	      6.04737142	    -20.84139763	      5.69265400	      5.69265400	     10.48077149	      4.74851387	     -6.15833546	     33.27506606	     -7.70702795	     -0.23561956	     20.09274434	     20.09274434	      9.60108452	     -6.01014675	     10.49136524	     -8.56459337	      6.30191747	      4.34995985	     38.41166366	    -17.35102746	     -9.42646803	     70.51148321	     45.21273112	      0.00000000	      0.00000000	     -8.11970397	     -7.11303581	      4.50402834	     24.91750159	     44.76588534	      0.00000000	      0.00000000
     24.47000000	     -4.82645477	     -5.38471758	      3.86642054	      0.92352408	      0.92840497	      0.50952306	      1.42907278	      6.21329694	    -20.89086563	      5.22097231	      5.22097231	     10.72150478	      4.92679166	     -6.27587731	     33.36853220	     -7.45429473	     -0.54848117	     19.05604684	     19.05604684	      9.45515717	     -5.59630901	     10.77798837	     -8.39658745	      6.37909922	      4.46594062	     39.55275470	    -17.55018684	     -9.57704647	     71.08737726	     45.20590755	      0.00000000	      0.00000000	     -8.77222556	     -7.01471668	      4.60232380	     24.79712003	     44.74262447	      0.00000000	      0.00000000
     24.48200000	     -4.97033704	     -5.48580188	      3.99040198	      0.92274384	      0.92732388	      0.50868521	      0.94926981	      6.36483754	    -20.89814659	      4.88339830	      4.88339830	     11.03279735	      5.08127121	     -6.37013414	     33.55179495	     -7.27016169	     -0.94822127	     18.69148936	     18.69148936	      9.25839401	     -5.63874653	     10.94280200	     -8.19835345	      6.44806521	      4.58653875	     40.52427751	    -17.82564574	     -9.74580789	     71.55391296	     45.20179262	      0.00000000	      0.00000000	     -9.47527136	     -6.97030281	      4.64415821	     24.60163219	     44.72576275	      0.00000000	      0.00000000
     24.49400000	     -4.95546336	     -5.58020966	      4.12211481	      0.92227034	      0.92652638	      0.50780736	      0.12634217	      6.57368973	    -20.99362950	      4.23057343	      4.23057343	     11.20350144	      5.53954243	     -6.38383085	     33.40984394	     -7.10401366	     -1.27734556	     18.52155648	     18.52155648	      8.96419750	     -6.04979235	     11.07818197	     -8.17438191	      6.51122136	      4.40239201	     41.40865477	    -17.60022130	     -9.87878559	     72.41091196	     45.18466331	      0.00000000	      0.00000000	    -10.15624679	     -6.91015594	      4.77112327	     24.52606452	     44.70044879	      0.00000000	      0.00000000
     24.50600000	     -5.11223282	     -5.63676666	      4.15382324	      0.92180825	      0.92535363	      0.50692931	     -0.25580313	      6.62602155	    -20.93951572	      4.11023383	      4.11023383	     11.62156875	      5.64643977	     -6.46888118	     33.45580350	     -6.98175484	     -1.74810629	     18.78111780	     18.78111780	      8.58335987	     -6.57124078	     11.15868682	     -7.95951086	      6.50705379	      4.54775136	     42.07855504	    -17.77487387	    -10.01826634	     72.78540910	     45.18132253	      0.00000000	      0.00000000	    -10.72033070	     -6.86082228	      4.80196043	     24.38993349	     44.68847510	      0.00000000	      0.00000000
